<?xml version="1.0" encoding="UTF-8"?>
<svg version="1.1" xmlns="http://www.w3.org/2000/svg" width="225" height="225">
<path d="M0 0 C74.25 0 148.5 0 225 0 C225 74.25 225 148.5 225 225 C150.75 225 76.5 225 0 225 C0 150.75 0 76.5 0 0 Z " fill="#FEFEFE" transform="translate(0,0)"/>
<path d="M0 0 C1.25843216 -0.0159874 2.51686432 -0.03197479 3.81343079 -0.04844666 C5.18445428 -0.0548243 6.55548266 -0.06021674 7.92651367 -0.06469727 C9.33892408 -0.07366963 10.75133354 -0.08279158 12.16374207 -0.09205627 C15.12350774 -0.10853222 18.0831605 -0.11624361 21.04296875 -0.11914062 C24.82264388 -0.12451827 28.6012471 -0.16217653 32.38062 -0.20788479 C35.29843448 -0.23773464 38.21599352 -0.2448659 41.13394737 -0.24586678 C42.52654611 -0.25005469 43.91914661 -0.26243153 45.31159401 -0.28338432 C53.40403187 -0.39544736 58.78942579 -0.44166514 64.78198242 5.30639648 C68.78577598 9.8249635 68.22826845 15.01329183 68.15698242 20.74389648 C68.16858398 21.67266602 68.18018555 22.60143555 68.19213867 23.55834961 C68.16411686 30.12012277 67.1877305 34.52475026 62.78198242 39.61889648 C59.80185266 42.13338097 57.31046515 42.43071196 53.55151367 42.40405273 C52.74907227 42.40083008 51.94663086 42.39760742 51.11987305 42.39428711 C50.28649414 42.3859082 49.45311523 42.3775293 48.59448242 42.36889648 C47.74950195 42.36438477 46.90452148 42.35987305 46.03393555 42.35522461 C43.94992087 42.34345052 41.86594265 42.32551539 39.78198242 42.30639648 C39.78198242 46.92639648 39.78198242 51.54639648 39.78198242 56.30639648 C41.42166992 56.24838867 43.06135742 56.19038086 44.75073242 56.13061523 C46.92778716 56.08369595 49.10487285 56.03819813 51.28198242 55.99389648 C52.35963867 55.95200195 53.43729492 55.91010742 54.54760742 55.86694336 C60.6413652 55.77405071 64.9996833 56.23176147 70.1784668 59.54003906 C88.52731481 79.75226735 74.78198242 114.00778121 74.78198242 141.30639648 C14.39198242 141.30639648 -45.99801758 141.30639648 -108.21801758 141.30639648 C-108.21801758 68.30639648 -108.21801758 68.30639648 -104.21801758 60.30639648 C-98.94310893 56.20010285 -94.81154153 55.7676901 -88.28051758 56.05639648 C-85.61989258 56.13889648 -82.95926758 56.22139648 -80.21801758 56.30639648 C-80.21801758 49.37639648 -80.21801758 42.44639648 -80.21801758 35.30639648 C-63.71801758 35.30639648 -47.21801758 35.30639648 -30.21801758 35.30639648 C-30.21801758 42.23639648 -30.21801758 49.16639648 -30.21801758 56.30639648 C-16.68801758 56.30639648 -3.15801758 56.30639648 10.78198242 56.30639648 C10.78198242 52.01639648 10.78198242 47.72639648 10.78198242 43.30639648 C9.71979492 43.3644043 8.65760742 43.42241211 7.56323242 43.48217773 C-6.02769518 44.00422613 -6.02769518 44.00422613 -11.73754883 39.88842773 C-17.01968599 34.2439276 -16.76726655 28.77246669 -16.78051758 21.43139648 C-16.81725586 20.36791992 -16.85399414 19.30444336 -16.8918457 18.20874023 C-16.92690844 11.93640623 -16.35628391 8.16458129 -11.90136719 3.60668945 C-7.98001706 0.57766686 -4.94585192 0.04753831 0 0 Z " fill="#262626" transform="translate(129.218017578125,27.693603515625)"/>
<path d="M0 0 C0.77238683 -0.00623996 1.54477366 -0.01247993 2.34056616 -0.01890898 C4.93100779 -0.03487522 7.52051316 -0.022221 10.11096191 -0.00964355 C11.96711273 -0.01506307 13.82325924 -0.02218477 15.67939758 -0.03088379 C20.72276388 -0.04914031 25.76580338 -0.04203998 30.80917549 -0.02936745 C36.08307919 -0.01925185 41.3569546 -0.02862912 46.63085938 -0.03491211 C55.48804761 -0.04219271 64.34510251 -0.03258996 73.20227051 -0.0135498 C83.44750259 0.00821969 93.6924163 0.00116861 103.93764067 -0.02085543 C112.72839699 -0.03899764 121.51905738 -0.04157351 130.30982637 -0.03110075 C135.562617 -0.02485934 140.81525789 -0.02404798 146.06803894 -0.0372467 C151.00604368 -0.04878741 155.94363728 -0.04081202 160.88159752 -0.01766968 C162.69565332 -0.01237307 164.50974363 -0.01391259 166.32378578 -0.02272034 C168.79681194 -0.03362212 171.26851374 -0.01997841 173.74145508 0 C174.46246446 -0.00892289 175.18347384 -0.01784577 175.926332 -0.02703905 C179.3116597 0.02615343 181.08642556 0.29162049 183.81421661 2.36708832 C186.96081902 6.69496797 185.98087344 12.29687478 185.93322754 17.44543457 C185.9570752 18.62557129 185.98092285 19.80570801 186.00549316 21.02160645 C186.00355957 22.16049316 186.00162598 23.29937988 185.99963379 24.47277832 C186.00072144 26.02920044 186.00072144 26.02920044 186.00183105 27.61706543 C185.12934189 31.61363959 183.54279825 32.96249306 180.37072754 35.50793457 C177.60776786 36.00157675 175.45998526 36.18617206 172.70385742 36.14285278 C171.55730454 36.15455271 171.55730454 36.15455271 170.38758898 36.16648901 C167.83004378 36.18640973 165.27398651 36.17064522 162.71643066 36.15490723 C160.88145581 36.16168335 159.04648776 36.17058645 157.21153259 36.18145752 C152.23007737 36.2042581 147.24913971 36.19541134 142.2676754 36.17956209 C137.0556333 36.16690707 131.84363563 36.1786421 126.6315918 36.18649292 C117.8787032 36.19559063 109.12602552 36.18359833 100.37316895 36.15979004 C90.25227281 36.13257859 80.13188027 36.14139266 70.01099634 36.16892207 C61.32294735 36.19160862 52.63505 36.19481542 43.94698095 36.18172872 C38.75729969 36.17393174 33.56785516 36.17289949 28.37818909 36.18941116 C23.4991758 36.20385 18.62081206 36.19384486 13.74186897 36.16493988 C11.95081219 36.15832594 10.15970078 36.16023202 8.3686657 36.1712532 C5.92423737 36.18490877 3.48189298 36.16779545 1.03759766 36.14285278 C0.32796513 36.15400639 -0.38166739 36.16516 -1.11280394 36.1766516 C-4.94806348 36.100684 -6.53812534 35.58107596 -9.56900787 33.1489315 C-12.03106196 29.99289158 -12.26094768 28.43517031 -12.25817871 24.47277832 C-12.2601123 23.3338916 -12.2620459 22.19500488 -12.26403809 21.02160645 C-12.24019043 19.84146973 -12.21634277 18.66133301 -12.19177246 17.44543457 C-12.20272949 16.26143066 -12.21368652 15.07742676 -12.22497559 13.85754395 C-12.15162294 5.22638251 -12.15162294 5.22638251 -10.07276154 2.36708832 C-6.78456577 -0.13476918 -3.96914261 -0.04912032 0 0 Z " fill="#242424" transform="translate(25.6292724609375,175.4920654296875)"/>
<path d="M0 0 C11.88 0 23.76 0 36 0 C36 18.81 36 37.62 36 57 C24.12 57 12.24 57 0 57 C0 38.19 0 19.38 0 0 Z " fill="#F9F9F9" transform="translate(56,70)"/>
<path d="M0 0 C1.34851518 -0.00337126 2.6970274 -0.00822647 4.04553223 -0.01449585 C6.86675043 -0.02185291 9.68717511 -0.01120145 12.50830078 0.01220703 C16.11681528 0.04069664 19.72347048 0.02428604 23.33191681 -0.00565529 C26.1150706 -0.02376136 28.89778669 -0.01795565 31.68095398 -0.00501633 C33.65568251 -0.00007954 35.63042835 -0.01521082 37.60510254 -0.03067017 C47.56206502 0.09958902 47.56206502 0.09958902 50.65795898 2.92407227 C52.3386575 5.65578543 52.97573484 7.00762165 52.97265625 10.16796875 C52.97458984 10.99103516 52.97652344 11.81410156 52.97851562 12.66210938 C52.95466797 13.50837891 52.93082031 14.35464844 52.90625 15.2265625 C52.91720703 16.07669922 52.92816406 16.92683594 52.93945312 17.80273438 C52.86656851 23.99792637 52.86656851 23.99792637 50.6962738 26.76315308 C47.67729904 29.20257476 46.02170319 29.17576994 42.16992188 29.19750977 C40.29778015 29.22126427 40.29778015 29.22126427 38.38781738 29.24549866 C37.02937445 29.24165733 35.67093445 29.23661836 34.3125 29.23046875 C32.91531968 29.23570511 31.5181429 29.24198164 30.12097168 29.24925232 C27.19554994 29.25965216 24.27061476 29.25510132 21.34521484 29.24047852 C17.5987643 29.22328316 13.85384637 29.24679427 10.10756683 29.28196812 C7.22326523 29.30394216 4.33933048 29.30250105 1.45497131 29.2942028 C0.0738812 29.2933834 -1.30723587 29.30024498 -2.68824768 29.31497383 C-4.61957161 29.33241591 -6.55111656 29.31455979 -8.48242188 29.29516602 C-9.58066284 29.29420425 -10.67890381 29.29324249 -11.8104248 29.29225159 C-14.65625 28.6640625 -14.65625 28.6640625 -17.0087738 26.25840759 C-19.4891347 22.35248645 -19.28102771 19.17736507 -19.21875 14.6640625 C-19.24259766 13.87 -19.26644531 13.0759375 -19.29101562 12.2578125 C-19.28908203 11.484375 -19.28714844 10.7109375 -19.28515625 9.9140625 C-19.28588135 9.21796875 -19.28660645 8.521875 -19.28735352 7.8046875 C-18.54120685 5.27385037 -17.54439738 3.46644714 -15.58848572 1.67218018 C-10.92492535 -0.76096894 -5.12175829 -0.04009727 0 0 Z " fill="#FAFAF9" transform="translate(137.65625,34.3359375)"/>
<path d="M0 0 C1.00208496 -0.00619858 2.00416992 -0.01239716 3.03662109 -0.01878357 C5.15135732 -0.02587482 7.26614945 -0.02271991 9.38085938 -0.01000977 C12.61432657 0.00386047 15.8449019 -0.03023174 19.078125 -0.06835938 C21.13541737 -0.06931056 23.19271337 -0.06745176 25.25 -0.0625 C26.69705322 -0.08238731 26.69705322 -0.08238731 28.17333984 -0.10267639 C32.7881216 -0.03872779 34.96055759 0.07772124 38.76953125 2.87915039 C40.625 5.56640625 40.625 5.56640625 40.6875 9.19140625 C39.50808455 12.93778474 38.90215625 13.62703205 35.625 15.56640625 C33.43128967 15.9540863 33.43128967 15.9540863 31.02758789 15.97045898 C29.67081688 15.98948524 29.67081688 15.98948524 28.28663635 16.00889587 C27.31677292 16.00596024 26.34690948 16.0030246 25.34765625 16 C24.34415634 16.00524185 23.34065643 16.0104837 22.30674744 16.0158844 C20.18603439 16.02230328 18.06528573 16.02096935 15.94458008 16.01245117 C12.70264143 16.00394597 9.46246751 16.03269767 6.22070312 16.06445312 C4.15885469 16.06606538 2.09700315 16.06548715 0.03515625 16.0625 C-1.41660255 16.07935097 -1.41660255 16.07935097 -2.89768982 16.09654236 C-7.18765316 16.05220454 -9.72070556 15.94748335 -13.48657227 13.75415039 C-15.375 11.56640625 -15.375 11.56640625 -16 8.06640625 C-15.375 4.56640625 -15.375 4.56640625 -13.484375 2.38305664 C-9.00903825 -0.23165604 -5.09888045 -0.02621512 0 0 Z " fill="#F4F4F4" transform="translate(142.375,104.43359375)"/>
<path d="M0 0 C18.48 0 36.96 0 56 0 C56 4.62 56 9.24 56 14 C37.52 14 19.04 14 0 14 C0 9.38 0 4.76 0 0 Z " fill="#A1C058" transform="translate(127,42)"/>
<path d="M0 0 C0 4.62 0 9.24 0 14 C15.84 14 31.68 14 48 14 C48 9.38 48 4.76 48 0 C54.01741522 2.40696609 54.01741522 2.40696609 56 6 C56.36328125 8.4375 56.36328125 8.4375 56.3125 11 C56.30863281 11.845625 56.30476563 12.69125 56.30078125 13.5625 C55.97405914 16.21022203 55.49756625 17.79406115 54 20 C50.87515857 21.95437164 48.41170438 22.26405306 44.76000977 22.30639648 C43.19302086 22.33037758 43.19302086 22.33037758 41.59437561 22.35484314 C39.90990578 22.36288719 39.90990578 22.36288719 38.19140625 22.37109375 C37.03253403 22.38012222 35.8736618 22.3891507 34.67967224 22.39845276 C32.22942693 22.41295662 29.77914287 22.42184232 27.32885742 22.42553711 C23.57990426 22.43744472 19.83259075 22.48664216 16.08398438 22.53710938 C13.70313303 22.54657226 11.32227159 22.55380794 8.94140625 22.55859375 C7.82045059 22.57812607 6.69949493 22.59765839 5.54457092 22.61778259 C-2.2180706 22.57275615 -2.2180706 22.57275615 -6.20703125 19.65087891 C-8.34318545 16.49260517 -8.64392887 14.7263375 -8.5625 10.9375 C-8.56378906 9.91527344 -8.56507812 8.89304687 -8.56640625 7.83984375 C-7.87455844 4.37106198 -6.71381238 3.19641263 -4 1 C-2 0 -2 0 0 0 Z " fill="#EAEAEA" transform="translate(50,119)"/>
<path d="M0 0 C3.4375 1.9375 3.4375 1.9375 6 5 C6.86150218 8.19738728 6.86150218 10.80261272 6 14 C2.95666217 17.63715985 1.12108584 18.82298645 -3.5625 19.5625 C-7.52374737 18.91429589 -9.18799374 17.81200626 -12 15 C-13.55024464 11.89951072 -13.28992015 9.42105782 -13 6 C-9.33404658 0.37887142 -6.67491925 -0.66749193 0 0 Z " fill="#FAFAFA" transform="translate(116,184)"/>
<path d="M0 0 C2 1.6875 2 1.6875 3 4 C2.87304813 7.11032079 2.47953174 9.20078043 0.875 11.875 C-2.20515368 13.72309221 -4.50442383 13.49060718 -8 13 C-10.5 10.875 -10.5 10.875 -12 8 C-12 4.49267067 -11.6345092 2.7565302 -9.375 0.0625 C-5.88680246 -1.49800943 -3.63567102 -0.99154664 0 0 Z " fill="#F3F3F3" transform="translate(180,148)"/>
<path d="M0 0 C2.5 1.5625 2.5 1.5625 4 4 C4 7.82389746 3.85254277 10.05611336 1.25 12.9375 C-1.49491218 14.23370853 -3.00074212 14.52487013 -6 14 C-8.3125 12.4375 -8.3125 12.4375 -10 10 C-10.42519574 6.53769185 -10.63902633 4.1652833 -8.9375 1.0625 C-5.8347167 -0.63902633 -3.46230815 -0.42519574 0 0 Z " fill="#F5F5F5" transform="translate(137,148)"/>
<path d="M0 0 C2.3125 1.5625 2.3125 1.5625 4 4 C4.42519574 7.46230815 4.63902633 9.8347167 2.9375 12.9375 C-0.1652833 14.63902633 -2.53769185 14.42519574 -6 14 C-8.5 12.4375 -8.5 12.4375 -10 10 C-10 6.17610254 -9.85254277 3.94388664 -7.25 1.0625 C-4.50508782 -0.23370853 -2.99925788 -0.52487013 0 0 Z " fill="#F4F4F4" transform="translate(157,147)"/>
<path d="M0 0 C3.5625 0.5 3.5625 0.5 6 2.125 C8.04741197 5.2370662 8.24801032 6.84394496 7.5625 10.5 C5.4375 12.9375 5.4375 12.9375 2.5625 14.5 C-0.65132832 14.43572343 -2.59887435 14.03112958 -5.3125 12.3125 C-7.00339731 9.58827656 -6.82207172 7.64066901 -6.4375 4.5 C-4.82303773 0.89120198 -3.95737975 0.57561887 0 0 Z " fill="#F7F7F7" transform="translate(175.4375,126.5)"/>
<path d="M0 0 C2.5 1.5625 2.5 1.5625 4 4 C4 7.82389746 3.85254277 10.05611336 1.25 12.9375 C-1.49491218 14.23370853 -3.00074212 14.52487013 -6 14 C-8.3125 12.4375 -8.3125 12.4375 -10 10 C-10.42519574 6.53769185 -10.63902633 4.1652833 -8.9375 1.0625 C-5.8347167 -0.63902633 -3.46230815 -0.42519574 0 0 Z " fill="#F5F5F5" transform="translate(158,127)"/>
<path d="M0 0 C2.5 1.5625 2.5 1.5625 4 4 C4 7.82389746 3.85254277 10.05611336 1.25 12.9375 C-1.49491218 14.23370853 -3.00074212 14.52487013 -6 14 C-8.3125 12.4375 -8.3125 12.4375 -10 10 C-10.42519574 6.53769185 -10.63902633 4.1652833 -8.9375 1.0625 C-5.8347167 -0.63902633 -3.46230815 -0.42519574 0 0 Z " fill="#F5F5F5" transform="translate(137,127)"/>
</svg>
